# xmcd
#
# Track frame offsets:
#	150
#	12825
#	34822
#	54404
#	75689
#	94071
#	112296
#	134713
#	148580
#	168447
#	189597
#	206787
#
# Disc length: 3045 seconds
#
# Revision: 1
# Processed by: cddbd v1.5.2PL0 Copyright (c) Steve Scherf et al.
# Submitted via: audiograbber 1.83.01
#
DISCID=ae0be30c
DTITLE=NO STRESS BROTHERS - sweet groovie paradoxum
DYEAR=2010
DGENRE=Blues
TTITLE0=Funky Blues A
TTITLE1=Summertime
TTITLE2=About Your Crime
TTITLE3=Never Look Back
TTITLE4=Chicken Soup Boogie Instrumental
TTITLE5=Bad Friend Blues
TTITLE6=Catalunya
TTITLE7=Ciccio Pasticcio Walkin´ Blues
TTITLE8=Funny Celtic Girl
TTITLE9=The World Is Mine
TTITLE10=Violina Cvitan
TTITLE11=Chicken Soup Boogie (LIVE)
EXTD=www.nostressbrothers.com
EXTT0=
EXTT1=
EXTT2=
EXTT3=
EXTT4=
EXTT5=
EXTT6=
EXTT7=
EXTT8=
EXTT9=
EXTT10=
EXTT11=
PLAYORDER=
